<?xml version="1.0" encoding="UTF-8" standalone="yes"?><svg xmlns="http://www.w3.org/2000/svg" xmlns:xlink="http://www.w3.org/1999/xlink" version="1.2" baseProfile="tiny" x="0" y="0" width="46" height="45" viewBox="0 0 46 45"><defs/><defs/><g id="产品icon-48px" fill="none" fill-rule="evenodd" stroke="none" stroke-width="1"><g id="云智小钛-48px" fill="#000000" transform="matrix(1,0,0,1,-1,-2)"><g id="6e1ab02bc81fdafae8bd48a26f7b59fe" transform="matrix(1,0,0,1,1,2)"><g id="XMLID_1_" transform="matrix(1,0,0,1,11,18)"><path id="Path" fill="#fd9d50" fill-opacity="1" stroke="none" d="M 0 0.2 L 2 0.2 L 2 7.2 L 0 7.2 L 0 0.2 Z"/></g><g id="XMLID_2_" transform="matrix(1,0,0,1,32,18)"><path id="Path" fill="#fd9d50" fill-opacity="1" stroke="none" d="M 0.7 0.2 L 2.7 0.2 L 2.7 7.2 L 0.7 7.2 L 0.7 0.2 Z"/></g><g id="XMLID_54_"><path id="XMLID_3_" fill="#fd9d50" fill-opacity="1" stroke="none" d="M 12 23 L 0 23 L 0 22 C 0 9.5 9.5 0 22 0 C 31.3 0 39.7 5.9 42.8 14.7 C 43.5 16.7 43.9 18.8 44 21 L 42 21 C 41.9 19 41.5 17.1 40.9 15.3 C 38 7.4 30.5 2 22 2 C 10.9 2 2.5 10.1 2 21 L 12 21 L 12 23 Z"/></g><g id="XMLID_37_" transform="matrix(1,0,0,1,18,40)"><path id="Path" fill="#fd9d50" fill-opacity="1" stroke="none" d="M 4.5 5 L 2.5 5 C 1.1 5 0 3.9 0 2.5 C 0 1.1 1.1 0 2.5 0 L 4.5 0 C 5.9 0 7 1.1 7 2.5 C 7 3.9 5.9 5 4.5 5 Z"/></g><path id="XMLID_6_" fill="#fd9d50" fill-opacity="1" stroke="none" d="M 41.3 28 C 39 36.1 31.2 42 22 42 L 22 44 C 32.3 44 41 37.2 43.4 28 L 41.3 28 Z"/><g id="XMLID_35_" transform="matrix(1,0,0,1,41,20)"><circle id="Oval" fill="#fd9d50" fill-opacity="1" stroke="none" cx="2.5" cy="2.5" r="2.5"/></g><path id="Path" fill="#fd9d50" fill-opacity="1" stroke="none" d="M 20.8 27.8 L 20.8 16.8 L 24.8 16.8 L 24.8 14.8 L 14.8 14.8 L 14.8 16.8 L 18.8 16.8 L 18.8 27.8 L 20.8 27.8 Z"/><rect id="Rectangle" fill="#fd9d50" fill-opacity="1" stroke="none" x="26.8" y="14.8" width="2" height="13"/></g></g></g></svg>
